<?xml version="1.0" encoding="utf-8"?>
<!-- Generator: Adobe Illustrator 19.1.1, SVG Export Plug-In . SVG Version: 6.00 Build 0)  -->
<svg version="1.1" id="Layer_1" xmlns="http://www.w3.org/2000/svg" xmlns:xlink="http://www.w3.org/1999/xlink" x="0px" y="0px"
	 viewBox="212 -26.7 464.7 92.7" style="enable-background:new 212 -26.7 464.7 92.7;" xml:space="preserve">
<style type="text/css">
	.st0{fill:#FFFFFF;}
</style>
<g>
	<g>
		<path class="st0" d="M218-3.8c8.3-17.9,29.6-25.6,47.5-17.3c17.9,8.4,25.7,29.6,17.3,47.6c-4.2,9-11.6,15.4-20.2,18.5l5.1,14.1
			c0.8,2.3-0.4,4.9-2.8,5.7c-1.4,0.5-2.9,0.3-4.1-0.5l0,0l-31.7-24.2c-0.1,0-0.1-0.1-0.2-0.1l-0.7-0.5l0,0
			C215.5,29.4,210.8,11.6,218-3.8z"/>
		<g>
			<path class="st0" d="M331.8,11.9C326.7-4,309.6-12.8,293.7-7.7c-1.6,0.5-3.1,1.2-4.6,1.9c4.8,10.8,5.1,23.5-0.3,35
				c-2.1,4.6-5,8.6-8.4,12c2.5,2.8,5.4,5.1,8.7,6.8l-5.9,11.3l0,0c-0.9,1.9-0.2,4.2,1.7,5.1c1.1,0.6,2.4,0.5,3.5,0l0,0l29.3-16.9
				c0.1,0,0.1-0.1,0.2-0.1l0.6-0.4l0,0C330.3,40,336.1,25.6,331.8,11.9z"/>
		</g>
	</g>
	<g>
		<path class="st0" d="M374.3,14.6c-0.1-0.2-0.1-0.5-0.1-0.8c0-2.6,2.9-4.5,7.3-4.5c4.1,0,8.1,1.3,11,3.2c1.1,0.7,2,1.4,2.7,2.2
			l1.5-2.7l3.4-5.9c-4.6-3.6-10.8-6.3-18.6-6.3c-12.3,0-19,6.8-19,14.6c0,0.6,0,1.1,0.1,1.6c1.6,16.2,27.3,10.6,27.3,17.9
			c0,2.9-2.5,4.9-7.8,4.9c-5.8,0-12.6-3.2-16-6.4l-5.3,8.8c4.9,4.5,12.7,7.2,20.7,7.2c12.8,0,20.1-6.2,20.1-14.8
			C401.7,15.7,376.3,20.3,374.3,14.6z"/>
		<path class="st0" d="M469.2,3.5c-7.8-5.3-20.6-5.5-28.4-0.2c0,0,0,0-0.1,0c0,0,0,0-0.1,0c-10.5-7.1-29.9-4.4-34.2,7.4
			c-0.5,1.5-0.8,3.1-0.8,4.9v31.7h12.6V15.6c0-8.3,16.2-8.4,16.2,0h0.1l0,0v31.7h12.6V15.6l0,0c0-8.4,16.2-8.3,16.2,0v31.7h12.6
			V15.6C475.9,10.2,473.2,6.2,469.2,3.5z"/>
		<path class="st0" d="M610,10.6c4.2,0,7.6,1.7,9.8,5l8-7.5c-3.1-4.2-8.8-8.3-18.3-8.3C595.3-0.2,585,9.9,585,24.1
			c0,14.3,10.4,24.3,24.5,24.3c9.5,0,15.2-4.2,18.3-8.4l-8-7.5c-2.2,3.2-5.6,5.1-9.8,5.1c-7.4,0-12.6-5.5-12.6-13.5
			S602.7,10.6,610,10.6z"/>
		<path class="st0" d="M644.3,0.9v-18.4c-3.8,0.4-8,0.9-12.5,1.4c0,5.8,0,23.1,0,23.1v40.2h12.5V14.5c1.6-7.3,18.5-7,18.5,0.9v31.8
			h12.6V15.7C675.4,1.7,658.8-3.3,644.3,0.9z"/>
		<path class="st0" d="M504.1-0.2c-15.2,0-24.4,11.1-24.4,24.3s9.2,24.3,24.4,24.3c15.3,0,24.5-11.2,24.5-24.3S519.5-0.2,504.1-0.2z
			 M504.1,37.6c-7.6,0-11.8-6.2-11.8-13.5c0-7.2,4.2-13.4,11.8-13.4c7.7,0,11.9,6.2,11.9,13.4S511.8,37.6,504.1,37.6z"/>
		<path class="st0" d="M557.3-0.2c-15.2,0-24.4,11.1-24.4,24.3s9.2,24.3,24.4,24.3c15.3,0,24.5-11.2,24.5-24.3S572.6-0.2,557.3-0.2z
			 M557.3,37.6c-7.6,0-11.8-6.2-11.8-13.5c0-7.2,4.2-13.4,11.8-13.4c7.7,0,11.9,6.2,11.9,13.4C569.1,31.3,564.9,37.6,557.3,37.6z"/>
	</g>
</g>
</svg>
